HIERARCHY
ROOT Hips
{
	OFFSET 0.00000 0.00000 0.00000
	CHANNELS 6 Xposition Yposition Zposition Zrotation Yrotation Xrotation 
	JOINT LHipJoint
	{
		OFFSET 0 0 0
		CHANNELS 3 Zrotation Yrotation Xrotation
		JOINT LeftUpLeg
		{
			OFFSET 1.62964 -1.40469 0.78906
			CHANNELS 3 Zrotation Yrotation Xrotation
			JOINT LeftLeg
			{
				OFFSET 2.29640 -6.30932 0.00000
				CHANNELS 3 Zrotation Yrotation Xrotation
				JOINT LeftFoot
				{
					OFFSET 2.29451 -6.30412 0.00000
					CHANNELS 3 Zrotation Yrotation Xrotation
					JOINT LeftToeBase
					{
						OFFSET 0.03611 -0.09921 1.56387
						CHANNELS 3 Zrotation Yrotation Xrotation
						End Site
						{
							OFFSET 0.00000 -0.00000 0.80291
						}
					}
				}
			}
		}
	}
	JOINT RHipJoint
	{
		OFFSET 0 0 0
		CHANNELS 3 Zrotation Yrotation Xrotation
		JOINT RightUpLeg
		{
			OFFSET -1.73712 -1.40469 0.78906
			CHANNELS 3 Zrotation Yrotation Xrotation
			JOINT RightLeg
			{
				OFFSET -2.28137 -6.26801 0.00000
				CHANNELS 3 Zrotation Yrotation Xrotation
				JOINT RightFoot
				{
					OFFSET -2.28681 -6.28298 0.00000
					CHANNELS 3 Zrotation Yrotation Xrotation
					JOINT RightToeBase
					{
						OFFSET -0.15927 -0.43759 1.61103
						CHANNELS 3 Zrotation Yrotation Xrotation
						End Site
						{
							OFFSET -0.00000 -0.00000 0.84630
						}
					}
				}
			}
		}
	}
	JOINT LowerBack
	{
		OFFSET 0 0 0
		CHANNELS 3 Zrotation Yrotation Xrotation
		JOINT Spine
		{
			OFFSET -0.04227 2.04338 -0.00225
			CHANNELS 3 Zrotation Yrotation Xrotation
			JOINT Spine1
			{
				OFFSET -0.02148 2.04482 -0.04273
				CHANNELS 3 Zrotation Yrotation Xrotation
				JOINT Neck
				{
					OFFSET 0 0 0
					CHANNELS 3 Zrotation Yrotation Xrotation
					JOINT Neck1
					{
						OFFSET 0.09180 1.44629 0.19359
						CHANNELS 3 Zrotation Yrotation Xrotation
						JOINT Head
						{
							OFFSET 0.00887 1.40645 0.14750
							CHANNELS 3 Zrotation Yrotation Xrotation
							End Site
							{
								OFFSET -0.00669 1.50671 0.03707
							}
						}
					}
				}
				JOINT LeftShoulder
				{
					OFFSET 0 0 0
					CHANNELS 3 Zrotation Yrotation Xrotation
					JOINT LeftArm
					{
						OFFSET 2.17674 1.86763 -0.06520
						CHANNELS 3 Zrotation Yrotation Xrotation
						JOINT LeftForeArm
						{
							OFFSET 4.65776 -0.00000 0.00000
							CHANNELS 3 Zrotation Yrotation Xrotation
							JOINT LeftHand
							{
								OFFSET 3.55539 -0.00000 0.00000
								CHANNELS 3 Zrotation Yrotation Xrotation
								JOINT LeftFingerBase
								{
									OFFSET 0 0 0
									CHANNELS 3 Zrotation Yrotation Xrotation
									JOINT LeftHandIndex1
									{
										OFFSET 0.70726 -0.00000 0.00000
										CHANNELS 3 Zrotation Yrotation Xrotation
										End Site
										{
											OFFSET 0.57022 -0.00000 0.00000
										}
									}
								}
								JOINT LThumb
								{
									OFFSET 0 0 0
									CHANNELS 3 Zrotation Yrotation Xrotation
									End Site
									{
										OFFSET 0.57892 -0.00000 0.57892
									}
								}
							}
						}
					}
				}
				JOINT RightShoulder
				{
					OFFSET 0 0 0
					CHANNELS 3 Zrotation Yrotation Xrotation
					JOINT RightArm
					{
						OFFSET -2.80694 1.55459 -0.32496
						CHANNELS 3 Zrotation Yrotation Xrotation
						JOINT RightForeArm
						{
							OFFSET -4.71925 -0.00000 -0.00000
							CHANNELS 3 Zrotation Yrotation Xrotation
							JOINT RightHand
							{
								OFFSET -3.56990 -0.00000 0.00000
								CHANNELS 3 Zrotation Yrotation Xrotation
								JOINT RightFingerBase
								{
									OFFSET 0 0 0
									CHANNELS 3 Zrotation Yrotation Xrotation
									JOINT RightHandIndex1
									{
										OFFSET -0.50776 -0.00000 0.00000
										CHANNELS 3 Zrotation Yrotation Xrotation
										End Site
										{
											OFFSET -0.40937 -0.00000 0.00000
										}
									}
								}
								JOINT RThumb
								{
									OFFSET 0 0 0
									CHANNELS 3 Zrotation Yrotation Xrotation
									End Site
									{
										OFFSET -0.41562 -0.00000 0.41562
									}
								}
							}
						}
					}
				}
			}
		}
	}
}
MOTION
Frames: 13
Frame Time: 0.153846
0.00 0.00 0.00 0 0 0 0 0 0 -21 0 0 0 0 0 0 0 0 0 0 0 0 0 0 21 0 0 0 0 0 0 0 0 0 0 0 0 0 0 0 0 0 0 0 0 0 0 -16 0 0 21 0 0 11 0 0 0 -8 0 0 0 0 0 0 0 0 0 0 0 0 0 0 0 0 0 0 0 0 8 0 0 0 0 0 0 0 0 0 0 0 0 0 0 0 0 0
0.00 0.00 0.00 176.5720 -2.0682 -151.8050 0.0000 0.0000 0.0000 -17.1107 -20.7494 -25.5622 1.7174 8.2507 23.4783 0.8948 1.3175 -18.3936 5.9794 -14.4084 -44.8991 0.0000 0.0000 0.0000 19.1577 16.6253 -20.3747 -0.3758 -3.9374 10.9007 -2.0107 0.4779 -26.7058 -1.4428 7.5937 -21.4865 -6.4157 -1.1126 -31.2957 -0.9558 -0.1400 -2.7782 2.2742 -0.8186 13.1598 -3.4181 3.2580 -1.9279 6.9456 1.3499 23.3970 2.8525 0.1469 7.3536 0.0000 -0.0000 0.0000 -84.6482 0.1001 9.1780 7.1155 -12.1092 -0.7557 -0.0000 -0.0000 15.0405 18.8499 -11.3435 -3.8417 -7.1250 0.0000 -0.0000 -5.8065 18.0478 3.7412 0.0000 -0.0000 0.0000 92.9668 -5.7773 4.4059 -16.1613 25.7389 -3.7157 0.0000 0.0000 0.9851 -4.8737 -55.9730 4.0422 7.1250 -0.0000 -0.0000 79.9596 -73.7201 -62.8591
0.00 0.00 0.00 177.4950 -0.7653 -152.7040 0.0000 0.0000 0.0000 -15.0248 -22.3248 -33.5177 4.9815 13.3629 40.7427 0.7961 1.0961 -17.2872 4.0330 -12.2042 -36.4583 0.0000 0.0000 0.0000 21.0768 15.8087 -18.9901 -0.4113 -4.1168 11.4055 -2.2434 3.0918 -27.5594 -1.1163 6.7120 -18.8649 -5.6318 -0.7650 -31.1463 -0.8698 0.2014 -2.0448 2.0948 -0.5942 13.9362 -3.5296 3.3704 -1.5345 7.6376 1.3214 23.1902 3.0869 0.1554 7.2039 -0.0000 0.0000 0.0000 -85.0264 0.1207 9.9595 6.8519 -11.6753 -0.7014 -0.0000 -0.0000 15.4150 19.4488 -12.1296 -4.2434 -7.1250 0.0000 -0.0000 -5.4016 17.1754 3.5817 -0.0000 0.0000 0.0000 92.3919 -3.0164 3.8380 -14.9109 24.0218 -3.1896 0.0000 0.0000 2.1132 -5.4598 -56.8583 4.5758 7.1250 -0.0000 -0.0000 82.8992 -74.0173 -66.1151
0.00 0.00 0.00 177.1880 9.4749 -152.3810 0.0000 0.0000 0.0000 -10.7086 -21.6894 -49.0297 0.8205 5.7798 16.1469 -0.0856 6.2019 1.3680 4.0158 -12.1814 -36.3766 0.0000 0.0000 0.0000 18.4715 10.2345 -4.9757 -1.2642 -7.1270 20.0921 -0.6676 11.0084 -15.4248 -3.2544 11.0959 -32.6040 -9.1661 -0.2200 -27.4975 -3.1970 3.7156 1.0093 2.9787 1.2519 15.5106 -1.8158 0.2452 -0.5919 4.9522 1.6387 22.5305 2.1052 1.8075 6.8963 -0.0000 0.0000 0.0000 -84.5044 1.6950 6.7333 6.5730 -11.2145 -0.6460 -0.0000 -0.0000 16.7972 19.2290 -10.7318 -3.7162 -7.1250 0.0000 -0.0000 -5.5318 18.6597 3.4874 -0.0000 0.0000 0.0000 92.0138 -1.1033 16.8510 -19.4717 30.0006 -5.2646 0.0000 -0.0000 -4.6278 -7.1039 -55.8668 5.8896 7.1250 -0.0000 -0.0000 79.0496 -74.5045 -62.8748
0.00 0.00 0.00 176.8770 9.0145 -151.6520 0.0000 0.0000 0.0000 -14.7038 -21.3163 -45.8397 0.9933 6.3428 17.7824 -0.0318 3.2300 -0.4797 2.2281 -9.3259 -26.8203 0.0000 0.0000 0.0000 16.1036 10.1485 -14.1123 -4.1999 -12.4218 37.2408 0.1157 6.9717 -1.2001 -3.8351 11.9377 -35.5119 -9.4935 -0.2594 -26.6675 -3.3782 3.6977 0.7075 2.9221 1.2935 14.7423 -0.3570 -0.9754 -0.0740 4.2423 -0.2242 21.0464 1.4837 0.8736 6.3930 0.0000 -0.0000 0.0000 -83.8757 0.6779 9.7875 6.8002 -11.5899 -0.6909 -0.0000 -0.0000 14.9535 17.4970 -9.8579 -3.0893 -7.1250 0.0000 -0.0000 -6.7567 19.6902 4.1135 0.0000 -0.0000 0.0000 91.5867 -3.2391 16.0106 -21.4194 32.3147 -6.2726 0.0000 -0.0000 -7.1719 -6.9616 -56.1624 5.7912 7.1250 -0.0000 -0.0000 80.1468 -74.4877 -63.9300
0.00 0.00 0.00 176.5100 9.4420 -151.3110 0.0000 0.0000 0.0000 -18.3380 -19.6482 -42.1694 0.9297 6.1423 17.1978 0.0088 0.4052 -1.9677 2.4547 -9.7550 -28.1870 0.0000 0.0000 0.0000 13.7160 12.0310 -25.2685 -8.6430 -16.5724 54.8472 -0.0564 -2.4088 4.2897 -4.8149 13.1723 -40.0169 -9.4664 -0.7159 -26.5239 -3.1374 3.0179 0.5247 2.9157 1.0011 14.5140 -0.8472 -0.7065 -0.0888 4.2706 0.0043 20.0775 1.5664 0.8673 6.0798 0.0000 -0.0000 0.0000 -83.6404 0.6022 16.4316 9.3375 -15.6967 -1.2899 -0.0000 -0.0000 8.0335 17.8275 -9.7350 -3.1126 -7.1250 0.0000 -0.0000 -6.5218 19.7972 3.9529 0.0000 -0.0000 0.0000 89.7830 -3.5116 18.0502 -21.9883 32.9638 -6.5795 0.0000 -0.0000 -7.7660 -6.2438 -54.7440 5.1053 7.1250 -0.0000 -0.0000 75.3272 -74.0109 -58.7141
0.00 0.00 0.00 175.7980 5.2831 -153.7030 0.0000 0.0000 0.0000 -24.8818 -16.1308 -29.1544 0.5451 4.7300 13.1399 -0.0180 -6.3815 -3.9808 2.0697 -9.0097 -25.8258 0.0000 0.0000 0.0000 10.2230 15.3971 -42.9956 -11.3683 -18.1106 63.9718 -0.4170 -2.4634 -13.3498 -3.9567 12.1026 -36.0959 -7.7755 -2.3563 -25.4044 -2.1247 -0.0714 0.9320 1.9966 -0.4006 15.4996 -1.1263 -0.7896 -0.1472 4.5601 -0.1813 20.1740 1.6968 0.7674 6.1250 0.0000 0.0000 0.0000 -81.4084 -4.2694 22.3009 13.4504 -21.9436 -2.6192 -0.0000 -0.0000 3.2398 21.4455 -10.2258 -3.9891 -7.1250 0.0000 -0.0000 -3.9535 19.0255 2.4546 0.0000 0.0000 0.0000 89.3240 -4.1918 11.4845 -21.3755 32.2640 -6.2492 0.0000 -0.0000 -7.7855 -9.5324 -55.1096 7.8425 7.1250 -0.0000 -0.0000 75.6830 -75.2811 -60.5036
0.00 0.00 0.00 176.5440 0.4261 -154.2350 0.0000 0.0000 0.0000 -25.3321 -15.3273 -21.0514 0.3698 3.9058 10.8118 -0.0704 -9.9465 -5.7186 2.1624 -9.1964 -26.4116 0.0000 0.0000 0.0000 7.0572 18.0009 -51.0723 -6.7360 -15.1055 47.8687 -0.6964 -5.1017 -18.4346 -4.3036 12.5538 -37.7204 -6.2668 -3.4409 -25.6578 -0.9166 -2.7579 1.0119 1.4245 -1.7965 15.9337 -1.0545 -1.0780 -0.6811 4.3252 -0.5433 20.7651 1.6015 0.6014 6.4171 0.0000 -0.0000 0.0000 -79.5370 -8.5244 24.8541 15.6548 -25.0504 -3.4985 -0.0000 -0.0000 0.4387 22.2586 -9.9518 -4.0459 -7.1250 0.0000 -0.0000 -3.3685 19.2548 2.0728 0.0000 -0.0000 0.0000 89.4556 -6.5221 6.9592 -18.9766 29.3897 -5.0194 0.0000 -0.0000 -4.2764 -11.0483 -52.7349 8.8327 7.1250 -0.0000 -0.0000 66.2425 -75.2854 -51.7008
0.00 0.00 0.00 176.3920 -3.0903 -154.4950 0.0000 0.0000 0.0000 -25.6536 -14.6531 -16.3153 0.3154 3.6100 9.9819 -0.1809 -12.9301 -6.5095 1.5819 -7.9348 -22.5162 0.0000 0.0000 0.0000 4.1513 18.4525 -51.4659 -2.9000 -10.5313 30.7151 -0.4816 -7.3156 -17.7852 -3.2998 11.1653 -32.8393 -6.1452 -4.4775 -25.6425 -0.3800 -4.2233 1.3240 1.3394 -2.4470 15.6925 -1.2464 -1.3588 -0.6224 4.7402 -0.9654 20.8680 1.7464 0.4279 6.4540 0.0000 0.0000 0.0000 -78.6404 -11.0959 26.6738 16.2822 -25.9018 -3.7684 -0.0000 -0.0000 0.0906 21.5305 -9.0727 -3.5599 -7.1250 0.0000 -0.0000 -3.8679 20.2498 2.2953 0.0000 0.0000 0.0000 90.0900 -8.6923 3.8232 -17.2625 27.2025 -4.2066 0.0000 -0.0000 -1.5735 -10.5670 -53.9396 8.5759 7.1250 -0.0000 -0.0000 70.9361 -75.4342 -56.1859
0.00 0.00 0.00 179.1320 -8.0242 -156.0320 0.0000 0.0000 0.0000 -21.1027 -15.2524 -6.7571 3.1563 10.9439 32.0909 -0.2835 -9.5403 1.7047 0.2570 -3.2616 -9.0078 0.0000 0.0000 0.0000 11.8673 19.7029 -44.3258 -1.2061 -6.9673 19.6185 0.0672 -8.2941 -10.3686 -1.7704 8.3704 -23.8450 -3.2321 -5.5439 -27.1658 1.8780 -6.8223 1.0105 1.1018 -3.4443 16.2835 -1.3091 -1.5586 -0.7760 4.5710 -1.1815 21.2520 1.6978 0.3319 6.6114 -0.0000 0.0000 0.0000 -83.2461 -4.5128 26.1651 14.1591 -22.9617 -2.8899 -0.0000 -0.0000 2.1210 23.1890 -11.1200 -4.7229 -7.1250 0.0000 -0.0000 -2.7524 17.9183 1.7741 -0.0000 0.0000 0.0000 91.5661 -8.5946 -20.2259 -9.9049 16.5906 -1.4477 0.0000 0.0000 16.3124 -11.6054 -54.8397 9.5310 7.1250 -0.0000 -0.0000 74.1483 -76.0074 -59.8519
0.00 0.00 0.00 179.7850 -8.0380 -155.9310 0.0000 0.0000 0.0000 -18.3565 -13.4474 -16.8611 7.3810 15.6445 50.3011 0.4666 0.7146 12.6755 0.8277 -5.8044 -16.2179 0.0000 0.0000 0.0000 16.2936 18.6409 -39.0364 -1.1036 -6.6750 18.7560 -0.1888 -6.0160 -12.5512 -1.5145 7.7716 -22.0226 -3.1448 -5.5354 -27.2217 1.9730 -6.8989 0.4830 1.1438 -3.4987 15.6919 -1.0480 -1.6703 -0.9187 4.4694 -1.3489 21.3006 1.6116 0.2656 6.6551 0.0000 -0.0000 0.0000 -83.6762 -0.8412 25.9565 11.3964 -18.8934 -1.9023 -0.0000 -0.0000 3.9559 20.4749 -11.7803 -4.3592 -7.1250 0.0000 -0.0000 -4.6771 17.4552 3.0691 0.0000 -0.0000 0.0000 92.1552 -9.0588 -12.0981 -12.0744 19.9161 -2.1276 0.0000 0.0000 7.9660 -14.4396 -51.8013 11.4397 7.1250 -0.0000 -0.0000 61.0250 -76.2741 -48.0649
0.00 0.00 0.00 180.4850 -6.2294 -156.5420 0.0000 0.0000 0.0000 -16.5375 -13.0602 -31.1069 13.1134 18.8227 69.4773 0.0904 4.8520 5.9115 2.8930 -10.5198 -30.6768 0.0000 0.0000 0.0000 20.7519 17.3380 -31.5934 -0.8576 -5.9058 16.5113 -0.6002 -1.9810 -15.4844 -1.3913 7.4627 -21.0936 -3.3982 -4.1054 -26.9385 1.2846 -4.8136 0.6814 1.3784 -2.5635 15.5891 -0.5529 -2.3114 -0.5105 4.2417 -2.3011 20.1587 1.3853 -0.2334 6.2388 -0.0000 -0.0000 0.0000 -83.7815 0.6981 21.4714 9.2485 -15.5557 -1.2659 -0.0000 -0.0000 11.2932 16.1834 -9.9426 -2.8686 -7.1250 0.0000 -0.0000 -7.6900 19.6828 4.6927 -0.0000 -0.0000 0.0000 92.4553 -8.3819 0.3481 -16.3594 26.0055 -3.8022 0.0000 -0.0000 -0.0885 -10.2306 -53.1539 8.2183 7.1250 -0.0000 -0.0000 68.1451 -75.1016 -53.2351
0.00 0.00 0.00 11.5269 84.0288 -321.5300 0.0000 0.0000 0.0000 -10.8689 -20.4588 -50.2579 10.3802 17.6182 60.7517 0.2832 3.3025 -11.8237 4.1109 -12.3065 -36.8250 0.0000 0.0000 0.0000 21.9150 11.9712 -14.3607 -0.2838 -3.4263 9.4679 -2.3724 5.3194 -27.9852 -0.3919 4.0196 -11.1318 -6.4218 -2.1577 -28.4720 -1.0089 -0.3585 -0.2069 2.2888 -0.5007 14.9381 -8.4567 0.2248 4.0438 10.5666 -0.3120 8.0657 4.5893 -0.1267 1.7230 0.0000 0.0000 0.0000 -83.1724 -0.1677 16.3403 10.2392 -17.1128 -1.5446 -0.0000 -0.0000 5.6995 22.1685 -11.3266 -4.5753 -7.1250 0.0000 -0.0000 -3.4770 17.7887 2.2527 0.0000 0.0000 0.0000 92.0364 -2.1315 5.2882 -12.5050 20.5577 -2.2765 0.0000 0.0000 5.5329 -9.6873 -52.8140 7.7445 7.1250 -0.0000 -0.0000 67.1684 -74.7956 -52.0049
